<svg width="127" height="23" viewBox="0 0 127 23" fill="none" xmlns="http://www.w3.org/2000/svg"><path d="M28.2 18V5h2.475l5.156 8.682V5h2.364v13h-2.553l-5.079-8.477V18H28.2zm12.4 0V5h9.342v2.2h-6.798v2.881h6.325v2.19h-6.325v3.539h7.038V18H40.6zm13.608 0L51.2 5h2.604l1.9 8.93L58.006 5h3.025l2.208 9.08L65.174 5h2.56l-3.059 13h-2.698l-2.51-9.719-2.5 9.72h-2.759zM68.4 13.69l2.475-.24c.15.828.452 1.437.907 1.825.456.389 1.07.583 1.844.583.819 0 1.436-.173 1.851-.519.416-.345.623-.75.623-1.212 0-.297-.087-.55-.262-.759-.174-.208-.48-.39-.915-.544-.298-.103-.977-.285-2.037-.548-1.363-.337-2.32-.752-2.87-1.243-.773-.691-1.16-1.534-1.16-2.528 0-.64.182-1.238.546-1.795.363-.557.888-.982 1.572-1.273.685-.291 1.511-.437 2.48-.437 1.58 0 2.771.346 3.57 1.037.8.691 1.22 1.614 1.26 2.768l-2.544.111c-.11-.645-.343-1.11-.7-1.392-.359-.283-.896-.424-1.612-.424-.74 0-1.318.151-1.736.454a.914.914 0 0 0-.404.78c0 .297.126.55.378.762.32.269 1.1.549 2.338.84 1.237.291 2.152.593 2.745.904a3.535 3.535 0 0 1 1.392 1.277c.336.54.503 1.207.503 2.001 0 .72-.2 1.394-.601 2.022-.401.629-.969 1.096-1.702 1.402-.733.305-1.647.458-2.741.458-1.593 0-2.816-.367-3.67-1.101-.854-.734-1.363-1.804-1.53-3.21zM80.8 18V5h5.355c1.346 0 2.324.117 2.934.35.61.234 1.099.65 1.466 1.246.366.597.55 1.28.55 2.049 0 .975-.278 1.78-.834 2.416-.556.636-1.387 1.036-2.492 1.202.55.33 1.004.694 1.362 1.09.358.396.84 1.1 1.448 2.111L92.127 18h-3.042l-1.84-2.829c-.652-1.01-1.1-1.648-1.34-1.91-.24-.264-.495-.444-.765-.542-.269-.097-.696-.146-1.28-.146h-.516V18h-2.543zm2.527-7.457h1.882c1.22 0 1.982-.051 2.286-.155.304-.103.541-.28.713-.532.172-.253.258-.568.258-.946 0-.424-.113-.766-.34-1.027-.226-.26-.545-.425-.958-.494-.206-.029-.825-.043-1.856-.043h-1.985v3.197zM104.842 18h-2.767l-1.1-2.953h-5.036L94.899 18h-2.698l4.907-13h2.69l5.044 13zm-4.676-5.171L98.43 8.154l-1.702 4.675h3.438zM106.201 18V5h9.341v2.2h-6.798v2.881h6.325v2.19h-6.325v3.539h7.039V18h-9.582zm11.8 0V5h2.544v10.792h6.325V18h-8.869z" fill="#fff"/><path fill-rule="evenodd" clip-rule="evenodd" d="M11.5 23L0 5h23L11.5 23zm0-3.6l7.667-12H3.833l7.667 12z" fill="#fff"/><path fill-rule="evenodd" clip-rule="evenodd" d="M11.5 0L0 18h23L11.5 0zm0 3.6l7.667 12H3.833l7.667-12z" fill="#fff"/></svg>