<svg width="86" height="66" viewBox="0 0 86 66" fill="none" xmlns="http://www.w3.org/2000/svg"><path d="M55.463 38.314h-17.26a6.517 6.517 0 0 1-6.509-6.51V14.872H4.621a4.163 4.163 0 0 0-4.163 4.164v31.539a4.163 4.163 0 0 0 4.163 4.162h15.994l.232 11.265L32.95 54.736h22.13a4.164 4.164 0 0 0 4.162-4.162v-8.741l-2.068-1.926-1.711-1.593z" fill="#0038B8"/><path d="M40.236 33.245h18.453l2.587 2.406 7.508 6.988.194-9.394h13.338a3.472 3.472 0 0 0 3.471-3.473v-26.3A3.472 3.472 0 0 0 82.315 0h-42.08a3.47 3.47 0 0 0-3.47 3.472v26.3a3.471 3.471 0 0 0 3.47 3.473z" fill="#0038B8"/></svg>