<svg width="87" height="16" viewBox="0 0 87 16" fill="none" xmlns="http://www.w3.org/2000/svg"><rect width="15.12" height="15.25" rx="2" fill="url(#a)"/><path fill-rule="evenodd" clip-rule="evenodd" d="M4.76 1.151h-2.8v2.877h2.8V1.151zm1.68 1.726h2.8v2.806h-2.8V2.877zm2.8 0h2.8v5.611h-2.8V2.877zm0 5.611h2.8v2.806h-2.8V8.488zm0 0h-2.8v2.806h2.8V8.488zm-5.6 0h2.8V14.1h-2.8V8.488zm2.8-2.805h-2.8v2.805h2.8V5.683z" fill="#fff"/><path fill-rule="evenodd" clip-rule="evenodd" d="M23.512 1.439c1.03 0 1.924.174 2.682.522.759.348 1.343.843 1.752 1.483.41.64.615 1.399.615 2.275 0 .865-.205 1.621-.615 2.267-.41.646-.993 1.14-1.752 1.483-.758.343-1.652.514-2.682.514h-2.341v3.253h-2.69V1.439h5.031zm.005 6.33c.824 0 1.45-.187 1.88-.56.43-.373.644-.902.644-1.59 0-.698-.215-1.234-.644-1.607-.43-.373-1.056-.56-1.88-.56H21.28V7.77h2.236zm8.368 4.346c.91.939 2.182 1.409 3.816 1.409s2.906-.47 3.816-1.41c.91-.938 1.364-2.28 1.364-4.022V1.44h-2.614v6.55c0 1.098-.218 1.904-.654 2.419-.436.515-1.068.772-1.896.772-1.7 0-2.549-1.063-2.549-3.19V1.438h-2.647v6.653c0 1.743.455 3.084 1.364 4.023zm18.767 1.12L48.457 9.95h-2.422v3.287H43.4V1.439h4.926c1.008 0 1.884.174 2.626.522.742.348 1.314.843 1.715 1.483.401.64.602 1.399.602 2.275 0 .877-.203 1.632-.61 2.267-.406.635-.983 1.12-1.731 1.458l2.552 3.792h-2.829zm-.335-9.225c.43.372.644.905.644 1.6 0 .685-.214 1.215-.644 1.593-.429.377-1.056.566-1.88.566h-2.236V3.453h2.236c.825 0 1.451.186 1.88.557zm10.436-2.571c1.03 0 1.924.174 2.682.522.758.348 1.343.843 1.752 1.483.41.64.615 1.399.615 2.275 0 .865-.205 1.621-.615 2.267-.41.646-.993 1.14-1.752 1.483-.758.343-1.652.514-2.682.514h-2.341v3.253h-2.69V1.439h5.031zm1.605 5.77c-.43.373-1.056.56-1.88.56H58.24V3.453h2.236c.825 0 1.452.186 1.88.56.43.372.645.908.645 1.607 0 .687-.215 1.216-.644 1.59zm5.404-5.77h2.652v9.572h5.748v2.225h-8.4V1.439zm19.04 11.797v-2.191h-6.299v-2.73h5.373V6.19h-5.373V3.63h6.084V1.439h-8.745v11.797h8.96z" fill="#734EE1"/><defs><linearGradient id="a" x1="-3.832" y1="9.478" x2="11.314" y2="24.303" gradientUnits="userSpaceOnUse"><stop stop-color="#734EE1"/><stop offset="1" stop-color="#734EE1"/></linearGradient></defs></svg>